<svg id="Layer_1" data-name="Layer 1" xmlns="http://www.w3.org/2000/svg" viewBox="0 0 333.75 87.1"><defs><style>.cls-1{fill:#fff;}</style></defs><title>EW-Logo-Flat-White-v2</title><rect class="cls-1" width="4" height="87.1"/><path class="cls-1" d="M67,4A39.55,39.55,0,1,1,27.48,43.55,39.59,39.59,0,0,1,67,4m0-4a43.55,43.55,0,1,0,43.55,43.55A43.55,43.55,0,0,0,67,0Z"/><path class="cls-1" d="M69.86,43.55l17-17A2,2,0,0,0,84,23.76l-17,17L50.1,23.8a2,2,0,0,0-2.83,2.83L64.2,43.55l-17,17a2,2,0,1,0,2.83,2.83l17-17L84,63.31a2,2,0,0,0,2.83-2.83Z"/><path class="cls-1" d="M157.75,31.56l0,3.48H138.31V3.51h19.43V7H142.57V17.46h12.28v3.34H142.57V31.56Z"/><path class="cls-1" d="M166.64,2.64V35h-3.92V2.64Z"/><path class="cls-1" d="M191.06,31.92a7.44,7.44,0,0,1-1.74,1.53,10.87,10.87,0,0,1-2.17,1.07,13.81,13.81,0,0,1-2.39.63,14.66,14.66,0,0,1-2.44.21,11.34,11.34,0,0,1-4.26-.78,9.34,9.34,0,0,1-3.37-2.29,10.48,10.48,0,0,1-2.21-3.73,15.15,15.15,0,0,1-.79-5.1,13,13,0,0,1,.71-4.36,10.27,10.27,0,0,1,2.06-3.51,9.48,9.48,0,0,1,3.28-2.33,10.76,10.76,0,0,1,4.36-.85,10,10,0,0,1,3.71.67A8.39,8.39,0,0,1,188.76,15a8.88,8.88,0,0,1,1.95,3.12,11.91,11.91,0,0,1,.7,4.24,2.55,2.55,0,0,1-.2,1.23.82.82,0,0,1-.75.31H175.58a13,13,0,0,0,.58,3.67,7.37,7.37,0,0,0,1.44,2.61,5.81,5.81,0,0,0,2.2,1.56,7.56,7.56,0,0,0,2.86.52,8.39,8.39,0,0,0,2.54-.34,12.17,12.17,0,0,0,1.84-.74,13.9,13.9,0,0,0,1.29-.74,1.7,1.7,0,0,1,.89-.34.86.86,0,0,1,.75.37ZM187.9,21.47a7.71,7.71,0,0,0-.39-2.5,5.61,5.61,0,0,0-1.12-2,5,5,0,0,0-1.79-1.28,6.78,6.78,0,0,0-6.85,1.19,7.68,7.68,0,0,0-2,4.54Z"/><path class="cls-1" d="M211.72,16.71a1.72,1.72,0,0,1-.35.37.78.78,0,0,1-.48.13,1.31,1.31,0,0,1-.73-.28q-.4-.28-1-.61a7.87,7.87,0,0,0-1.43-.6,7.71,7.71,0,0,0-5,.31,5.59,5.59,0,0,0-2.1,1.68,7.61,7.61,0,0,0-1.28,2.66,13.22,13.22,0,0,0-.43,3.5,12.77,12.77,0,0,0,.46,3.6,7.67,7.67,0,0,0,1.31,2.64,5.63,5.63,0,0,0,2,1.63,6.28,6.28,0,0,0,2.69.56,6.47,6.47,0,0,0,3.88-1.1q.6-.42,1-.76a1.26,1.26,0,0,1,.8-.34.86.86,0,0,1,.75.37l1.1,1.43a7.79,7.79,0,0,1-1.65,1.54,10.15,10.15,0,0,1-2,1.07,10.82,10.82,0,0,1-2.23.63,14.19,14.19,0,0,1-2.38.2,9.73,9.73,0,0,1-3.88-.77,8.84,8.84,0,0,1-3.11-2.23,10.45,10.45,0,0,1-2.07-3.6,14.64,14.64,0,0,1-.75-4.86,14.68,14.68,0,0,1,.69-4.6,10.41,10.41,0,0,1,2-3.64A9.18,9.18,0,0,1,201,13.26a11,11,0,0,1,4.48-.86,10.57,10.57,0,0,1,4.15.76,9.92,9.92,0,0,1,3.18,2.15Z"/><path class="cls-1" d="M237.9,35H234V16H222.5V29.41a2.84,2.84,0,0,0,.68,2.09,2.38,2.38,0,0,0,1.76.68A3.12,3.12,0,0,0,226,32a4.62,4.62,0,0,0,.78-.36q.33-.2.56-.36a.74.74,0,0,1,.41-.17.68.68,0,0,1,.55.37l1.14,1.87A7.3,7.3,0,0,1,227,34.85a8.29,8.29,0,0,1-2.95.54A5.37,5.37,0,0,1,220,33.92a5.88,5.88,0,0,1-1.42-4.25V16H215.9a.88.88,0,0,1-.59-.21.81.81,0,0,1-.24-.65V13.61l3.65-.48.9-6.86a1,1,0,0,1,.3-.54.87.87,0,0,1,.6-.21h2v7.68h15.4Zm1-29.44a2.49,2.49,0,0,1-.23,1.07,2.91,2.91,0,0,1-.62.87,3,3,0,0,1-.89.59,2.68,2.68,0,0,1-1.08.22A2.6,2.6,0,0,1,235,8.14a2.85,2.85,0,0,1-1.46-1.46,2.6,2.6,0,0,1-.22-1.07,2.75,2.75,0,0,1,.22-1.09,2.92,2.92,0,0,1,.59-.9A2.77,2.77,0,0,1,235,3a2.61,2.61,0,0,1,1.07-.22,2.7,2.7,0,0,1,1.08.22,2.88,2.88,0,0,1,.89.61,3,3,0,0,1,.62.9A2.64,2.64,0,0,1,238.87,5.6Z"/><path class="cls-1" d="M253.72,12.4a11.38,11.38,0,0,1,4.4.81,9.44,9.44,0,0,1,3.34,2.31,10.14,10.14,0,0,1,2.12,3.62,14.39,14.39,0,0,1,.74,4.74,14.37,14.37,0,0,1-.74,4.75,10.16,10.16,0,0,1-2.12,3.61,9.3,9.3,0,0,1-3.34,2.3,11.51,11.51,0,0,1-4.4.8,11.65,11.65,0,0,1-4.43-.8,9.27,9.27,0,0,1-3.35-2.3,10.16,10.16,0,0,1-2.12-3.61,14.36,14.36,0,0,1-.74-4.75,14.38,14.38,0,0,1,.74-4.74,10.14,10.14,0,0,1,2.12-3.62,9.41,9.41,0,0,1,3.35-2.31A11.52,11.52,0,0,1,253.72,12.4Zm0,19.89a5.72,5.72,0,0,0,4.93-2.21,10.24,10.24,0,0,0,1.63-6.17,10.33,10.33,0,0,0-1.63-6.2,5.71,5.71,0,0,0-4.93-2.22,6.91,6.91,0,0,0-2.92.57,5.42,5.42,0,0,0-2.07,1.65,7.33,7.33,0,0,0-1.23,2.65,14.2,14.2,0,0,0-.41,3.55,10.19,10.19,0,0,0,1.64,6.17A5.8,5.8,0,0,0,253.72,32.29Z"/><path class="cls-1" d="M273,16a13.27,13.27,0,0,1,1.54-1.47,10.18,10.18,0,0,1,1.73-1.13,8.82,8.82,0,0,1,1.94-.73,9.23,9.23,0,0,1,2.21-.25,8.07,8.07,0,0,1,3.22.6,6.25,6.25,0,0,1,2.33,1.72,7.58,7.58,0,0,1,1.42,2.67,11.64,11.64,0,0,1,.48,3.45V35H283.9V20.85a6,6,0,0,0-1.15-3.93,4.29,4.29,0,0,0-3.51-1.4,6.58,6.58,0,0,0-3.24.84,10.69,10.69,0,0,0-2.78,2.27V35h-3.94V12.75h2.35a1,1,0,0,1,1,.81Z"/><path class="cls-1" d="M178,52.91,168.18,84h-2L157,57q-.18-.55-.31-1.14-.13.59-.31,1.14l-9.22,27h-2l-9.81-31.13h1.87a.77.77,0,0,1,.81.59l7.85,25.59q.24.88.44,2,.11-.57.22-1.07a8.19,8.19,0,0,1,.26-.94l8.8-25.59a1,1,0,0,1,.31-.42.82.82,0,0,1,.53-.18H157a.76.76,0,0,1,.51.17,1.1,1.1,0,0,1,.31.43l8.8,25.59a8.31,8.31,0,0,1,.28.92q.12.51.23,1.06l.21-1q.1-.5.21-.94l7.85-25.59a.79.79,0,0,1,.3-.42.86.86,0,0,1,.54-.18Z"/><path class="cls-1" d="M179.82,65.25a12.73,12.73,0,0,1,3.61-2.6,10.07,10.07,0,0,1,4.29-.88,7.83,7.83,0,0,1,3.08.56A5.7,5.7,0,0,1,193,63.94a7,7,0,0,1,1.31,2.53,11.63,11.63,0,0,1,.44,3.31V84h-.84a.75.75,0,0,1-.81-.62l-.31-2.82A23.08,23.08,0,0,1,191,82.19a10.71,10.71,0,0,1-1.86,1.19,9.5,9.5,0,0,1-2.09.75,10.72,10.72,0,0,1-2.46.26,7.27,7.27,0,0,1-2.18-.33,5.49,5.49,0,0,1-1.88-1,4.89,4.89,0,0,1-1.32-1.75,6.05,6.05,0,0,1-.5-2.56,4.55,4.55,0,0,1,.79-2.57A6.48,6.48,0,0,1,182,74.1a16.49,16.49,0,0,1,4.35-1.41,37.62,37.62,0,0,1,6.37-.62V69.78a7.34,7.34,0,0,0-1.31-4.67,4.67,4.67,0,0,0-3.88-1.64,7.33,7.33,0,0,0-2.69.44,9.59,9.59,0,0,0-1.88,1,11.83,11.83,0,0,0-1.25,1,1.36,1.36,0,0,1-.81.44.66.66,0,0,1-.4-.11,1,1,0,0,1-.26-.29Zm12.87,8.21a41.36,41.36,0,0,0-5.38.5,15.53,15.53,0,0,0-3.72,1,5.56,5.56,0,0,0-2.17,1.57,3.31,3.31,0,0,0-.7,2.08,4.6,4.6,0,0,0,.36,1.9,3.71,3.71,0,0,0,1,1.32,3.86,3.86,0,0,0,1.4.76,5.59,5.59,0,0,0,1.65.24,9.37,9.37,0,0,0,2.34-.27,8.7,8.7,0,0,0,2-.77,9.65,9.65,0,0,0,1.7-1.18q.79-.68,1.56-1.47Z"/><path class="cls-1" d="M207.47,84.39A4.71,4.71,0,0,1,204,83.16a5.16,5.16,0,0,1-1.24-3.81v-15h-3.15a.59.59,0,0,1-.4-.13.47.47,0,0,1-.15-.37v-.81l3.74-.26.53-7.83a.81.81,0,0,1,.18-.35.47.47,0,0,1,.37-.15h1v8.36h6.91v1.56h-6.91V79.24a4.64,4.64,0,0,0,.23,1.55,2.88,2.88,0,0,0,.64,1.07,2.5,2.5,0,0,0,1,.62,3.49,3.49,0,0,0,1.19.2,3.63,3.63,0,0,0,1.36-.23,5.64,5.64,0,0,0,1-.51,6.44,6.44,0,0,0,.68-.51.75.75,0,0,1,.42-.23.48.48,0,0,1,.35.22l.57.92a6.11,6.11,0,0,1-2.12,1.48A6.62,6.62,0,0,1,207.47,84.39Z"/><path class="cls-1" d="M231.21,65.08l-.21.19a.44.44,0,0,1-.28.08,1.1,1.1,0,0,1-.59-.3,7.51,7.51,0,0,0-1-.65,8.67,8.67,0,0,0-1.59-.65,8.92,8.92,0,0,0-5.68.37A6.75,6.75,0,0,0,219.38,66a8.58,8.58,0,0,0-1.53,3,14.37,14.37,0,0,0-.52,4,14.16,14.16,0,0,0,.54,4.09,8.72,8.72,0,0,0,1.53,3A6.5,6.5,0,0,0,221.8,82a7.48,7.48,0,0,0,3.12.64,8.1,8.1,0,0,0,2.65-.37,8.65,8.65,0,0,0,1.76-.81,7.26,7.26,0,0,0,1.09-.81,1.1,1.1,0,0,1,.66-.37.54.54,0,0,1,.44.22l.55.7a6.4,6.4,0,0,1-1.28,1.23,8.62,8.62,0,0,1-1.74,1,10.7,10.7,0,0,1-2.1.65,11.86,11.86,0,0,1-2.36.23,9.38,9.38,0,0,1-3.82-.76,8.27,8.27,0,0,1-3-2.2,10.29,10.29,0,0,1-1.94-3.53,16.42,16.42,0,0,1,0-9.33,10.2,10.2,0,0,1,1.94-3.56,8.74,8.74,0,0,1,3.11-2.32,10.19,10.19,0,0,1,4.21-.83,9.83,9.83,0,0,1,3.78.68,9.34,9.34,0,0,1,2.88,1.85Z"/><path class="cls-1" d="M239.35,65.85a12.3,12.3,0,0,1,3.46-2.95,8.72,8.72,0,0,1,4.37-1.1,8.23,8.23,0,0,1,3.18.57A5.84,5.84,0,0,1,252.64,64a7.3,7.3,0,0,1,1.36,2.6,11.77,11.77,0,0,1,.46,3.43V84h-2.11V70a7.5,7.5,0,0,0-1.41-4.83,5.18,5.18,0,0,0-4.29-1.75,7.76,7.76,0,0,0-4,1.09,11.28,11.28,0,0,0-3.31,3V84h-2.11V52h2.11Z"/><path class="cls-1" d="M285.77,82.43a9.86,9.86,0,0,0,4-.78,8.61,8.61,0,0,0,3-2.17,9.54,9.54,0,0,0,1.88-3.27,12.38,12.38,0,0,0,.65-4.06V52.91h2.24V72.16a13.93,13.93,0,0,1-.81,4.81,11.49,11.49,0,0,1-2.34,3.89,10.82,10.82,0,0,1-3.72,2.61,13.26,13.26,0,0,1-9.83,0,10.81,10.81,0,0,1-3.72-2.61A11.48,11.48,0,0,1,274.79,77a13.92,13.92,0,0,1-.81-4.81V52.91h2.27V72.14a12.35,12.35,0,0,0,.65,4.06,9.62,9.62,0,0,0,1.87,3.27,8.61,8.61,0,0,0,3,2.18A9.75,9.75,0,0,0,285.77,82.43Z"/><path class="cls-1" d="M308.63,67.28h1.85a6.8,6.8,0,0,0,.73,0,2.51,2.51,0,0,0,.56-.12,1.57,1.57,0,0,0,.46-.25,5.09,5.09,0,0,0,.45-.41l12.56-12.91a1.84,1.84,0,0,1,.65-.51,2,2,0,0,1,.76-.13h1.8l-13.6,14a6.37,6.37,0,0,1-.74.68,3,3,0,0,1-.71.4,2.61,2.61,0,0,1,.84.41,4.53,4.53,0,0,1,.75.71l14.32,15h-1.83a1.35,1.35,0,0,1-1.32-.59L313,70q-.24-.24-.45-.42a2.16,2.16,0,0,0-.46-.3,2.18,2.18,0,0,0-.59-.18,5.7,5.7,0,0,0-.87-.05h-2V84h-2.27V52.91h2.27Z"/></svg>