<svg xmlns="http://www.w3.org/2000/svg" viewBox="0 0 255.78 186.62"><defs><style>.a{fill:#494949;}</style></defs><title>Logo-GreySVG</title><rect class="a" width="4" height="186.62"/><path class="a" d="M65.44,3.85A38.11,38.11,0,1,1,27.33,42,38.15,38.15,0,0,1,65.44,3.85m0-3.85a42,42,0,1,0,42,42,42,42,0,0,0-42-42Z"/><path class="a" d="M68.17,42,84.51,25.62a1.93,1.93,0,0,0-2.72-2.72L65.44,39.24,49.13,22.93a1.93,1.93,0,0,0-2.72,2.72L62.72,42,46.38,58.3A1.93,1.93,0,1,0,49.1,61L65.44,44.69,81.75,61a1.93,1.93,0,1,0,2.72-2.72Z"/><path class="a" d="M52.69,133l0,4H30.15V100.51H52.66v4H35.09v12.14H49.32v3.88H35.09V133Z"/><path class="a" d="M63,99.49v37.56H58.45V99.49Z"/><path class="a" d="M91.3,133.43a8.62,8.62,0,0,1-2,1.77,12.54,12.54,0,0,1-2.51,1.24,16,16,0,0,1-2.77.73,17,17,0,0,1-2.83.24,13.14,13.14,0,0,1-4.93-.91,10.82,10.82,0,0,1-3.9-2.65,12.16,12.16,0,0,1-2.56-4.32,17.57,17.57,0,0,1-.92-5.92,15,15,0,0,1,.83-5,11.9,11.9,0,0,1,2.38-4.07,11,11,0,0,1,3.8-2.7,12.47,12.47,0,0,1,5-1,11.64,11.64,0,0,1,4.3.78,9.73,9.73,0,0,1,3.42,2.24,10.29,10.29,0,0,1,2.26,3.62,13.79,13.79,0,0,1,.82,4.91,3,3,0,0,1-.23,1.43,1,1,0,0,1-.87.36H73.34a15.1,15.1,0,0,0,.68,4.26,8.54,8.54,0,0,0,1.67,3,6.74,6.74,0,0,0,2.55,1.81,8.76,8.76,0,0,0,3.31.6,9.72,9.72,0,0,0,2.95-.4,14,14,0,0,0,2.13-.85,16.32,16.32,0,0,0,1.49-.85,2,2,0,0,1,1-.4,1,1,0,0,1,.87.43Zm-3.67-12.11a9,9,0,0,0-.45-2.89,6.52,6.52,0,0,0-1.3-2.27,5.81,5.81,0,0,0-2.08-1.48,7.86,7.86,0,0,0-7.94,1.38,8.9,8.9,0,0,0-2.36,5.27Z"/><path class="a" d="M115.24,115.81a2,2,0,0,1-.41.43.92.92,0,0,1-.56.15,1.51,1.51,0,0,1-.84-.32q-.46-.32-1.13-.7a9.07,9.07,0,0,0-1.66-.7,8.94,8.94,0,0,0-5.78.36,6.47,6.47,0,0,0-2.44,2,8.82,8.82,0,0,0-1.48,3.09,15.31,15.31,0,0,0-.5,4.05,14.81,14.81,0,0,0,.54,4.17,8.88,8.88,0,0,0,1.52,3.06,6.52,6.52,0,0,0,2.37,1.89,7.29,7.29,0,0,0,3.12.65,7.5,7.5,0,0,0,4.5-1.27q.7-.48,1.17-.88a1.46,1.46,0,0,1,.93-.4,1,1,0,0,1,.87.43l1.28,1.66a9.06,9.06,0,0,1-1.91,1.79,11.78,11.78,0,0,1-2.31,1.24,12.54,12.54,0,0,1-2.59.73,16.45,16.45,0,0,1-2.75.23,11.28,11.28,0,0,1-4.5-.89,10.26,10.26,0,0,1-3.61-2.59,12.13,12.13,0,0,1-2.4-4.17,18.42,18.42,0,0,1-.06-11A12.08,12.08,0,0,1,99,114.57a10.66,10.66,0,0,1,3.8-2.77,12.75,12.75,0,0,1,5.19-1,12.25,12.25,0,0,1,4.81.88,11.5,11.5,0,0,1,3.68,2.49Z"/><path class="a" d="M145.59,137.05H141V115H127.74v15.5a3.3,3.3,0,0,0,.79,2.42,2.76,2.76,0,0,0,2,.79,3.6,3.6,0,0,0,1.24-.19,5.31,5.31,0,0,0,.91-.42q.38-.23.65-.42a.85.85,0,0,1,.47-.19.78.78,0,0,1,.64.43l1.33,2.17a8.46,8.46,0,0,1-2.83,1.72,9.61,9.61,0,0,1-3.42.63,6.23,6.23,0,0,1-4.7-1.71,6.82,6.82,0,0,1-1.65-4.92V115h-3.11a1,1,0,0,1-.69-.24.94.94,0,0,1-.28-.75v-1.81l4.23-.56,1-8a1.11,1.11,0,0,1,.34-.62,1,1,0,0,1,.7-.24h2.29v8.9h17.85Zm1.12-34.12a2.9,2.9,0,0,1-.27,1.24,3.39,3.39,0,0,1-.71,1,3.42,3.42,0,0,1-1,.69,3.1,3.1,0,0,1-1.25.25,3,3,0,0,1-1.24-.25,3.3,3.3,0,0,1-1.7-1.7,3,3,0,0,1-.26-1.24,3.18,3.18,0,0,1,.26-1.26,3.36,3.36,0,0,1,.69-1,3.19,3.19,0,0,1,1-.7,3,3,0,0,1,1.24-.25,3.1,3.1,0,0,1,1.25.25,3.31,3.31,0,0,1,1,.7,3.47,3.47,0,0,1,.71,1A3.07,3.07,0,0,1,146.71,102.93Z"/><path class="a" d="M163.92,110.81a13.18,13.18,0,0,1,5.1.94,10.94,10.94,0,0,1,3.88,2.68,11.78,11.78,0,0,1,2.46,4.19,18.16,18.16,0,0,1,0,11,11.8,11.8,0,0,1-2.46,4.18,10.79,10.79,0,0,1-3.88,2.66,13.34,13.34,0,0,1-5.1.93,13.51,13.51,0,0,1-5.14-.93,10.76,10.76,0,0,1-3.89-2.66,11.77,11.77,0,0,1-2.46-4.18,18.14,18.14,0,0,1,0-11,11.75,11.75,0,0,1,2.46-4.19,10.9,10.9,0,0,1,3.89-2.68A13.34,13.34,0,0,1,163.92,110.81Zm0,23.05a6.63,6.63,0,0,0,5.71-2.56,11.86,11.86,0,0,0,1.89-7.15,12,12,0,0,0-1.89-7.19,6.62,6.62,0,0,0-5.71-2.58,8,8,0,0,0-3.38.66,6.28,6.28,0,0,0-2.4,1.91,8.5,8.5,0,0,0-1.43,3.07,16.43,16.43,0,0,0-.47,4.12,11.8,11.8,0,0,0,1.9,7.15A6.72,6.72,0,0,0,163.92,133.86Z"/><path class="a" d="M186.23,115a15.21,15.21,0,0,1,1.79-1.71,11.83,11.83,0,0,1,2-1.31,10.21,10.21,0,0,1,2.24-.84,10.67,10.67,0,0,1,2.56-.29,9.33,9.33,0,0,1,3.74.7,7.24,7.24,0,0,1,2.7,2,8.79,8.79,0,0,1,1.64,3.1,13.49,13.49,0,0,1,.56,4v16.45h-4.56V120.6a7,7,0,0,0-1.34-4.55,5,5,0,0,0-4.07-1.62,7.63,7.63,0,0,0-3.76,1,12.38,12.38,0,0,0-3.23,2.63v19h-4.56V111.22h2.73a1.12,1.12,0,0,1,1.2.94Z"/><path class="a" d="M76.12,150,64.78,186.05H62.43L51.77,154.74q-.2-.64-.36-1.33-.15.69-.36,1.33L40.37,186.05H38.05L26.68,150h2.17a.89.89,0,0,1,.94.69l9.1,29.66q.28,1,.51,2.32.13-.66.26-1.24a9.41,9.41,0,0,1,.31-1.08l10.2-29.66a1.1,1.1,0,0,1,.36-.48,1,1,0,0,1,.61-.2h.71a.89.89,0,0,1,.59.19,1.27,1.27,0,0,1,.36.5L63,180.31a9.52,9.52,0,0,1,.32,1.07q.14.59.27,1.22l.24-1.21q.11-.57.24-1.08l9.1-29.66a.9.9,0,0,1,.34-.48,1,1,0,0,1,.62-.2Z"/><path class="a" d="M78.27,164.27a14.74,14.74,0,0,1,4.18-3,11.66,11.66,0,0,1,5-1,9.07,9.07,0,0,1,3.57.65,6.6,6.6,0,0,1,2.54,1.86A8.15,8.15,0,0,1,95,165.69a13.49,13.49,0,0,1,.51,3.84v16.52h-1a.87.87,0,0,1-.94-.71l-.36-3.26a26.62,26.62,0,0,1-2.08,1.84,12.41,12.41,0,0,1-2.15,1.38,11,11,0,0,1-2.42.87,12.47,12.47,0,0,1-2.86.31,8.42,8.42,0,0,1-2.52-.38,6.36,6.36,0,0,1-2.18-1.17,5.68,5.68,0,0,1-1.53-2,7,7,0,0,1-.57-3,5.28,5.28,0,0,1,.92-3,7.52,7.52,0,0,1,2.88-2.4,19.16,19.16,0,0,1,5-1.63,43.75,43.75,0,0,1,7.38-.71v-2.65a8.5,8.5,0,0,0-1.52-5.42,5.42,5.42,0,0,0-4.5-1.9,8.5,8.5,0,0,0-3.12.51,11.06,11.06,0,0,0-2.18,1.12A13.71,13.71,0,0,0,80.41,165a1.57,1.57,0,0,1-.94.51.77.77,0,0,1-.46-.13,1.14,1.14,0,0,1-.31-.33Zm14.92,9.51a47.78,47.78,0,0,0-6.23.57,18,18,0,0,0-4.31,1.21,6.43,6.43,0,0,0-2.51,1.82,3.84,3.84,0,0,0-.82,2.41,5.32,5.32,0,0,0,.42,2.21,4.31,4.31,0,0,0,1.12,1.53,4.48,4.48,0,0,0,1.62.88,6.51,6.51,0,0,0,1.91.28,10.85,10.85,0,0,0,2.72-.32,10,10,0,0,0,2.29-.89,11.21,11.21,0,0,0,2-1.36q.92-.79,1.81-1.71Z"/><path class="a" d="M110.32,186.46a5.46,5.46,0,0,1-4-1.43,6,6,0,0,1-1.44-4.41V163.28h-3.65a.68.68,0,0,1-.46-.15.54.54,0,0,1-.18-.43v-.94l4.33-.31.61-9.08a.92.92,0,0,1,.2-.41.54.54,0,0,1,.43-.18h1.15v9.69h8v1.81h-8v17.21a5.37,5.37,0,0,0,.27,1.8,3.36,3.36,0,0,0,.74,1.24,2.9,2.9,0,0,0,1.11.71,4,4,0,0,0,1.38.23,4.22,4.22,0,0,0,1.58-.27,6.57,6.57,0,0,0,1.15-.59,7.31,7.31,0,0,0,.79-.59.87.87,0,0,1,.48-.27.56.56,0,0,1,.41.25l.66,1.07a7.07,7.07,0,0,1-2.46,1.72A7.68,7.68,0,0,1,110.32,186.46Z"/><path class="a" d="M137.83,164.07l-.24.22a.51.51,0,0,1-.32.09,1.27,1.27,0,0,1-.69-.34,8.69,8.69,0,0,0-1.17-.75,10,10,0,0,0-1.85-.75A10.33,10.33,0,0,0,127,163a7.83,7.83,0,0,0-2.87,2.23,9.93,9.93,0,0,0-1.77,3.52,16.65,16.65,0,0,0-.6,4.64,16.38,16.38,0,0,0,.63,4.74,10.1,10.1,0,0,0,1.77,3.48,7.55,7.55,0,0,0,2.78,2.15,8.67,8.67,0,0,0,3.62.74,9.37,9.37,0,0,0,3.07-.43,10,10,0,0,0,2-.94,8.44,8.44,0,0,0,1.26-.94,1.27,1.27,0,0,1,.76-.43.63.63,0,0,1,.51.25l.64.82a7.4,7.4,0,0,1-1.48,1.43,10,10,0,0,1-2,1.15,12.34,12.34,0,0,1-2.44.75,13.71,13.71,0,0,1-2.74.27,10.87,10.87,0,0,1-4.42-.88,9.58,9.58,0,0,1-3.44-2.55,11.91,11.91,0,0,1-2.24-4.09A19,19,0,0,1,120,168a11.81,11.81,0,0,1,2.24-4.13,10.13,10.13,0,0,1,3.61-2.69,11.81,11.81,0,0,1,4.88-1,11.41,11.41,0,0,1,4.39.79,10.83,10.83,0,0,1,3.34,2.14Z"/><path class="a" d="M147.27,165a14.27,14.27,0,0,1,4-3.42,10.11,10.11,0,0,1,5.06-1.27,9.54,9.54,0,0,1,3.68.66,6.78,6.78,0,0,1,2.64,1.91,8.47,8.47,0,0,1,1.58,3,13.64,13.64,0,0,1,.54,4v16.22h-2.45V169.83a8.69,8.69,0,0,0-1.63-5.6,6,6,0,0,0-5-2,9,9,0,0,0-4.63,1.26,13.08,13.08,0,0,0-3.84,3.51v19.07h-2.45v-37.1h2.45Z"/><path class="a" d="M201.07,184.19a11.43,11.43,0,0,0,4.65-.91,10,10,0,0,0,3.48-2.51,11,11,0,0,0,2.18-3.79,14.32,14.32,0,0,0,.75-4.7V150h2.6v22.31a16.14,16.14,0,0,1-.94,5.57,13.32,13.32,0,0,1-2.72,4.51,12.52,12.52,0,0,1-4.31,3,15.36,15.36,0,0,1-11.4,0,12.52,12.52,0,0,1-4.31-3,13.32,13.32,0,0,1-2.72-4.51,16.14,16.14,0,0,1-.94-5.57V150H190v22.29a14.32,14.32,0,0,0,.75,4.7,11.14,11.14,0,0,0,2.17,3.79,10,10,0,0,0,3.47,2.52A11.29,11.29,0,0,0,201.07,184.19Z"/><path class="a" d="M227.57,166.62h2.14a8.05,8.05,0,0,0,.84,0,2.92,2.92,0,0,0,.65-.14,1.81,1.81,0,0,0,.54-.29,6,6,0,0,0,.52-.47l14.56-15a2.15,2.15,0,0,1,.75-.59,2.29,2.29,0,0,1,.88-.15h2.09l-15.76,16.19a7.47,7.47,0,0,1-.86.79,3.35,3.35,0,0,1-.83.46,3,3,0,0,1,1,.47,5.23,5.23,0,0,1,.87.83l16.6,17.34h-2.12a2,2,0,0,1-1-.17,2,2,0,0,1-.57-.52l-15.25-15.61c-.19-.19-.36-.35-.52-.48a2.5,2.5,0,0,0-.54-.34,2.54,2.54,0,0,0-.69-.2,6.55,6.55,0,0,0-1-.06h-2.32v17.39h-2.63V150h2.63Z"/></svg>